#!OML:ASF F:\VICON\USERDATA\INSTALL\rory3\rory3.ASF
:FULLY-SPECIFIED
:DEGREES
361
root 5.66096 17.9433 37.2044 -3.9252 -5.11872 0.0235124
lowerback 10.5522 1.58669 -0.941642
upperback 0.839088 2.016 0.377598
thorax -5.08721 1.01771 0.626355
lowerneck -17.6072 -2.1285 -1.49765
upperneck 18.9422 -2.68111 0.662638
head 8.86577 -1.29554 0.132425
rclavicle 4.00054e-015 -9.34288e-015
rhumerus -28.7922 -18.8486 -80.0096
rradius 26.1078
rwrist 6.13722
rhand -15.9687 20.5168
rfingers 7.12502
rthumb 10.2304 -9.2144
lclavicle 4.00054e-015 -9.34288e-015
lhumerus -34.5261 8.58349 78.7795
lradius 19.3349
lwrist 2.26584
lhand -28.5621 20.8526
lfingers 7.12502
lthumb -1.92879 50.8236
rfemur -18.2037 -0.231258 22.5392
rtibia 76.5332
rfoot 2.39849 -6.14503
rtoes 9.25974
lfemur -9.6898 -1.57639 -23.6989
ltibia 27.3219
lfoot -10.9317 -3.11859
ltoes 3.3385
362
root 5.66673 17.9515 37.3861 -3.96711 -4.85004 0.669619
lowerback 10.3771 1.46476 -1.53056
upperback 0.781715 1.77982 0.234016
thorax -5.0582 0.913056 0.846366
lowerneck -17.4785 -2.06177 -1.29924
upperneck 19.0767 -2.59107 0.413038
head 8.88114 -1.26667 0.0269896
rclavicle -1.02716e-014 6.01324e-015
rhumerus -29.252 -18.7493 -79.9358
rradius 26.0531
rwrist 5.71247
rhand -16.3149 21.654
rfingers 7.12502
rthumb 9.89637 -8.09336
lclavicle -1.02716e-014 6.01324e-015
lhumerus -34.4074 7.46895 79.2391
lradius 19.5062
lwrist 3.54553
lhand -30.1364 15.746
lfingers 7.12502
lthumb -3.44916 45.6979
rfemur -19.2893 -0.621388 21.7259
rtibia 76.4963
rfoot 1.11683 -5.79597
rtoes 6.06698
lfemur -8.96423 -1.81173 -24.5913
ltibia 27.1738
lfoot -11.3848 -2.74222
ltoes 2.33776
363
root 5.6668 17.9525 37.5546 -3.96825 -4.62757 0.71897
lowerback 10.4452 1.2882 -1.62078
upperback 0.762342 1.5361 0.284385
thorax -5.11353 0.795844 0.983947
lowerneck -17.5832 -1.98181 -1.19538
upperneck 19.2544 -2.47299 0.251605
head 8.95638 -1.22094 -0.0321625
rclavicle -1.30173e-014 2.98177e-016
rhumerus -29.4314 -18.8289 -79.8598
rradius 25.7248
rwrist 5.16857
rhand -16.6188 23.7619
rfingers 7.12502
rthumb 9.60311 -5.99923
lclavicle -1.30173e-014 2.98177e-016
lhumerus -34.0335 7.17669 79.272
lradius 19.8886
lwrist 2.88447
lhand -29.3492 12.7452
lfingers 7.12502
lthumb -2.68896 42.708
rfemur -20.4477 -0.862925 21.7003
rtibia 76.2785
rfoot 0.943622 -5.52384
rtoes 8.83103
lfemur -8.23995 -1.61951 -24.7409
ltibia 27.0053
lfoot -11.7453 -2.80155
ltoes 3.16455
364
root 5.66268 17.948 37.7186 -4.02307 -4.46161 0.485733
lowerback 10.7988 1.10072 -1.47588
upperback 0.769746 1.30572 0.420854
thorax -5.29636 0.681374 1.07322
lowerneck -17.4242 -1.9909 -1.47844
upperneck 18.9411 -2.47784 0.563264
head 8.82854 -1.2108 0.123137
rclavicle 1.93598e-014 1.31198e-014
rhumerus -29.5274 -19.1266 -79.7921
rradius 25.5831
rwrist 5.30183
rhand -16.5247 24.1829
rfingers 7.12502
rthumb 9.69393 -5.57402
lclavicle 1.93598e-014 1.31198e-014
lhumerus -33.5102 6.87732 79.2536
lradius 20.5088
lwrist 1.21037
lhand -26.3826 23.6169
lfingers 7.12502
lthumb 0.176218 53.5966
rfemur -21.4832 -0.982783 22.0723
rtibia 75.8721
rfoot 0.401996 -5.50463
rtoes 10.3612
lfemur -7.51953 -1.65156 -24.5644
ltibia 26.9984
lfoot -12.2531 -2.61557
ltoes 2.92601
365
root 5.65999 17.9473 37.8887 -4.01788 -4.18813 0.376477
lowerback 10.7717 0.921238 -1.39336
upperback 0.786275 1.08294 0.515182
thorax -5.25718 0.570519 1.15989
lowerneck -17.091 -1.92833 -1.67399
upperneck 18.6619 -2.39389 0.799253
head 8.67812 -1.1616 0.250204
rclavicle 5.31128e-015 -1.2921e-015
rhumerus -29.8057 -19.2376 -79.7185
rradius 25.7359
rwrist 5.34604
rhand -16.2059 23.5871
rfingers 7.12502
rthumb 10.0016 -6.15524
lclavicle 5.31128e-015 -1.2921e-015
lhumerus -33.0369 6.44802 79.493
lradius 20.3613
lwrist 2.12834
lhand -27.4182 22.1575
lfingers 7.12502
lthumb -0.824043 52.1356
rfemur -22.4964 -1.21628 22.2366
rtibia 75.2902
rfoot -0.793787 -5.42669
rtoes 11.152
lfemur -7.03494 -1.93166 -24.536
ltibia 27.1756
lfoot -12.7647 -2.41618
ltoes 3.62016
366
root 5.65826 17.9324 38.0565 -3.9847 -3.88508 0.112542
lowerback 10.655 0.745194 -1.12527
upperback 0.795395 0.889954 0.6479
thorax -5.17416 0.470351 1.17799
lowerneck -17.0954 -1.80265 -1.52449
upperneck 18.7687 -2.22831 0.648771
head 8.70943 -1.08917 0.19484
rclavicle -4.9075e-015 9.54166e-015
rhumerus -30.2075 -19.1033 -79.6208
rradius 26.049
rwrist 4.96286
rhand -15.7867 22.869
rfingers 7.12502
rthumb 10.4059 -6.85351
lclavicle -4.9075e-015 9.54166e-015
lhumerus -32.6384 5.93934 79.6906
lradius 20.5813
lwrist 2.12364
lhand -26.8852 21.9554
lfingers 7.12502
lthumb -0.309224 51.9349
rfemur -23.4534 -1.49556 22.6078
rtibia 74.5931
rfoot -2.04002 -5.36848
rtoes 10.6217
lfemur -6.62127 -2.24164 -24.3515
ltibia 27.3529
lfoot -13.213 -2.28004
ltoes 4.14
367
root 5.65267 17.918 38.2244 -3.91166 -3.69945 0.32392
lowerback 10.595 0.677354 -1.3743
upperback 0.804024 0.769427 0.620404
thorax -5.1309 0.415945 1.3083
lowerneck -17.0704 -1.81944 -1.54936
upperneck 18.6302 -2.2553 0.700458
head 8.659 -1.09829 0.213812
rclavicle 6.13748e-015 6.16232e-015
rhumerus -30.4648 -18.8249 -79.6987
rradius 26.4073
rwrist 4.38411
rhand -15.5038 21.9729
rfingers 7.12502
rthumb 10.6788 -7.73574
lclavicle 6.13748e-015 6.16232e-015
lhumerus -32.1708 5.45902 79.7665
lradius 21.0608
lwrist 1.96053
lhand -25.6743 23.0181
lfingers 7.12502
lthumb 0.860273 52.9961
rfemur -24.5245 -1.61084 22.4726
rtibia 73.8498
rfoot -3.27983 -5.41276
rtoes 9.44117
lfemur -6.1577 -2.31704 -24.6671
ltibia 27.4172
lfoot -13.6308 -2.09007
ltoes 3.69207
